#!OML:ASF F:\VICON\USERDATA\INSTALL\rory3\rory3.ASF
:FULLY-SPECIFIED
:DEGREES
173
root 0.999985 17.7687 0.849222 -1.33027 -1.85683 2.92367
lowerback 10.2345 -0.649465 -3.87392
upperback 0.718288 -1.24927 1.14083
thorax -4.88413 -0.522609 3.55606
lowerneck -17.601 -2.19579 -1.5946
upperneck 18.8776 -2.63201 0.133144
head 8.83583 -1.3387 -0.0250121
rclavicle 1.80397e-014 -4.77083e-015
rhumerus -34.1732 -21.2832 -76.5521
rradius 23.4556
rwrist 7.74324
rhand -14.4943 26.164
rfingers 7.12502
rthumb 11.6525 -3.49196
lclavicle 1.80397e-014 -4.77083e-015
lhumerus -22.9137 -6.87027 79.6888
lradius 33.0616
lwrist 8.94614
lhand -28.412 27.0101
lfingers 7.12502
lthumb -1.78381 56.9824
rfemur -30.1741 8.56251 15.2404
rtibia 14.8413
rfoot -11.4594 -14.4029
rtoes 0.283953
lfemur 12.5723 -1.67664 -27.2359
ltibia 17.4022
lfoot -16.163 4.69911
ltoes -10.6223
174
root 0.978288 17.7605 1.03991 -1.38715 -1.46916 2.82277
lowerback 10.4305 -0.833351 -3.86283
upperback 0.644659 -1.49363 1.2759
thorax -5.04606 -0.636634 3.73274
lowerneck -17.538 -2.20188 -1.68279
upperneck 18.9588 -2.59583 0.0320433
head 8.852 -1.33962 -0.0401331
rclavicle 7.55382e-015 -4.77083e-015
rhumerus -34.4646 -20.6525 -76.6066
rradius 23.481
rwrist 7.20972
rhand -15.1255 26.9356
rfingers 7.12502
rthumb 11.0437 -2.75383
lclavicle 7.55382e-015 -4.77083e-015
lhumerus -23.0418 -6.58941 79.7079
lradius 33.091
lwrist 9.05647
lhand -28.7546 29.0754
lfingers 7.12502
lthumb -2.11469 59.0447
rfemur -29.8602 8.61807 15.1705
rtibia 14.6605
rfoot -10.454 -14.0774
rtoes -3.92315
lfemur 13.0803 -2.13012 -27.1069
ltibia 17.9232
lfoot -16.4312 4.41045
ltoes -10.4502
175
root 0.957058 17.7591 1.23086 -1.45818 -1.30851 2.82814
lowerback 10.4734 -0.902675 -3.95269
upperback 0.595151 -1.59353 1.37163
thorax -5.1079 -0.68036 3.90093
lowerneck -17.1392 -2.18136 -1.78618
upperneck 18.7709 -2.54383 0.0164558
head 8.71699 -1.32539 -0.0161103
rclavicle -2.18663e-015 -3.18055e-015
rhumerus -34.9121 -20.3693 -76.4775
rradius 23.5455
rwrist 6.71787
rhand -15.4898 27.5537
rfingers 7.12502
rthumb 10.6924 -2.15426
lclavicle -2.18663e-015 -3.18055e-015
lhumerus -23.1006 -6.32159 79.7714
lradius 33.0163
lwrist 9.09256
lhand -28.5617 29.8407
lfingers 7.12502
lthumb -1.92839 59.8118
rfemur -29.5965 8.30772 15.2861
rtibia 14.8923
rfoot -9.66173 -13.1928
rtoes -4.21803
lfemur 13.3575 -2.42658 -27.1139
ltibia 18.6726
lfoot -15.8866 4.11534
ltoes -11.169
176
root 0.933032 17.7555 1.42718 -1.5282 -1.13273 2.67141
lowerback 10.334 -0.941479 -3.78021
upperback 0.725237 -1.61608 1.41166
thorax -4.89434 -0.702918 3.84134
lowerneck -17.1375 -2.16626 -1.73011
upperneck 18.4935 -2.54309 0.0479339
head 8.6217 -1.31711 -0.0127102
rclavicle -1.14301e-015 0
rhumerus -35.0047 -21.1734 -76.1044
rradius 23.2569
rwrist 7.2069
rhand -15.2287 28.2527
rfingers 7.12502
rthumb 10.9442 -1.44204
lclavicle -1.14301e-015 0
lhumerus -22.9026 -6.18872 79.7345
lradius 32.9312
lwrist 8.958
lhand -29.2768 26.2675
lfingers 7.12502
lthumb -2.61899 56.2312
rfemur -29.3838 7.93815 15.6517
rtibia 15.5224
rfoot -9.44323 -12.3507
rtoes -3.78289
lfemur 13.5225 -2.66663 -26.9241
ltibia 19.7212
lfoot -15.6388 3.98338
ltoes -12.432
177
root 0.903668 17.7438 1.62903 -1.71223 -0.971434 2.4021
lowerback 10.4018 -1.0066 -3.5587
upperback 0.790873 -1.67376 1.50299
thorax -4.86138 -0.737177 3.82069
lowerneck -17.1932 -2.091 -1.74681
upperneck 18.5175 -2.4484 0.115385
head 8.64011 -1.26636 0.0238155
rclavicle -1.65985e-014 -7.95139e-016
rhumerus -35.2203 -21.3667 -75.9638
rradius 23.3463
rwrist 7.41652
rhand -15.5696 26.2045
rfingers 7.12502
rthumb 10.6154 -3.50735
lclavicle -1.65985e-014 -7.95139e-016
lhumerus -22.9207 -6.17008 79.7492
lradius 32.8668
lwrist 8.96685
lhand -30.6826 23.1391
lfingers 7.12502
lthumb -3.97667 53.0818
rfemur -29.1246 7.79606 16.1295
rtibia 16.5142
rfoot -9.62511 -11.6687
rtoes -3.67378
lfemur 13.8681 -2.79603 -26.5502
ltibia 20.9328
lfoot -15.6024 3.80502
ltoes -13.8115
178
root 0.87273 17.7289 1.83299 -1.7824 -0.794654 2.16867
lowerback 10.377 -1.07802 -3.40856
upperback 0.765124 -1.74461 1.62046
thorax -4.86884 -0.773641 3.86881
lowerneck -17.178 -2.08955 -1.7962
upperneck 18.7011 -2.42429 0.0679563
head 8.69986 -1.26407 0.0179217
rclavicle 1.98785e-016 3.18055e-015
rhumerus -35.5049 -21.4351 -75.7699
rradius 23.4329
rwrist 7.57344
rhand -16.742 22.209
rfingers 7.12502
rthumb 9.48431 -7.55753
lclavicle 1.98785e-016 3.18055e-015
lhumerus -23.0668 -6.12503 79.8688
lradius 32.8201
lwrist 8.87279
lhand -30.9294 24.5888
lfingers 7.12502
lthumb -4.21498 54.5268
rfemur -28.9357 7.65954 16.5647
rtibia 17.6027
rfoot -9.77361 -10.9717
rtoes -2.88458
lfemur 14.1105 -3.02415 -26.2289
ltibia 22.2238
lfoot -15.522 3.623
ltoes -14.8476
